<svg width="164" height="58" fill="none" xmlns="http://www.w3.org/2000/svg"><path d="M3 10.429C3 6.326 5.94 3 9.568 3h142.864C156.059 3 159 6.326 159 10.429V47.57c0 4.103-2.941 7.429-6.568 7.429H9.568C5.941 55 3 51.674 3 47.571V10.43z" fill="#2E7EED"/><path fill-rule="evenodd" clip-rule="evenodd" d="M152.432 4H9.568C6.605 4 4 6.759 4 10.429V47.57C4 51.241 6.605 54 9.568 54h142.864c2.963 0 5.568-2.759 5.568-6.429V10.43c0-3.671-2.605-6.43-5.568-6.43zM9.568 3C5.941 3 3 6.326 3 10.429V47.57C3 51.674 5.94 55 9.568 55h142.864c3.627 0 6.568-3.326 6.568-7.429V10.43c0-4.104-2.941-7.43-6.568-7.43H9.568z" fill="#fff"/><path d="M16.817 44.162c2.516 2.48 6.565 2.48 14.662 2.48h1.432c8.097 0 12.146 0 14.662-2.48 2.515-2.48 2.515-6.472 2.515-14.457v-1.411c0-7.984 0-11.976-2.515-14.457-2.516-2.48-6.565-2.48-14.662-2.48h-1.432c-8.097 0-12.146 0-14.662 2.48-2.515 2.48-2.515 6.473-2.515 14.457v1.411c0 7.985 0 11.977 2.515 14.457z" fill="#fff"/><path fill-rule="evenodd" clip-rule="evenodd" d="M41.93 34.81l-2.418-.596a.693.693 0 01-.507-.64l-.302-8.776c-.088-1.161-.962-2.085-1.876-2.357a.124.124 0 00-.136.049.102.102 0 00.024.138c.226.173.847.735.847 1.704l-.002 11.473c0 1.108-1.062 1.92-2.157 1.65l-2.455-.604a.696.696 0 01-.472-.632l-.301-8.776c-.088-1.161-.962-2.085-1.876-2.357a.124.124 0 00-.136.049.102.102 0 00.024.138c.226.172.847.734.847 1.704l-.002 9.563h.001v1.91c0 1.109-1.062 1.921-2.157 1.651l-6.935-1.708a2.135 2.135 0 01-1.64-2.063V24.839c0-1.108 1.062-1.92 2.157-1.65l4.37 1.076v-2.072c0-1.108 1.061-1.92 2.156-1.65l4.37 1.076v-2.072c0-1.107 1.062-1.92 2.157-1.65l6.935 1.708a2.135 2.135 0 011.64 2.063V33.16c0 1.108-1.061 1.92-2.156 1.651z" fill="#2E7EED"/><path d="M71.047 43.857h-2.734l-4.34-5.972H61.69v5.972h-2.328V28.146h5.606c1.084 0 2.056.208 2.915.624.86.416 1.522.995 1.99 1.738.481.728.722 1.567.722 2.518 0 1.189-.369 2.207-1.107 3.053-.738.832-1.725 1.382-2.96 1.65l4.52 6.128zM61.69 30.263v5.527h3.278c.964 0 1.74-.253 2.328-.758.602-.52.904-1.189.904-2.006 0-.817-.302-1.478-.904-1.983-.588-.52-1.364-.78-2.328-.78H61.69zM77.225 44.08c-.829 0-1.575-.2-2.238-.602a4.367 4.367 0 01-1.56-1.693c-.376-.728-.564-1.546-.564-2.452v-6.998h2.215v6.82c0 .876.248 1.59.745 2.14.498.549 1.138.824 1.922.824.813 0 1.491-.282 2.034-.847.542-.565.814-1.27.814-2.117v-6.82h2.215v11.522h-1.583l-.52-1.738a3.96 3.96 0 01-1.491 1.448 3.963 3.963 0 01-1.99.513zm13.84 0c-1.462 0-2.735-.371-3.82-1.114-1.07-.758-1.8-1.783-2.192-3.076l2.237-.356c.437.832.957 1.448 1.56 1.85.603.386 1.34.579 2.215.579.889 0 1.612-.193 2.17-.58.557-.4.836-.943.836-1.626 0-.506-.158-.929-.475-1.27a3.3 3.3 0 00-1.153-.825 21.232 21.232 0 00-1.83-.691c-1.01-.327-1.839-.654-2.487-.98a4.729 4.729 0 01-1.65-1.382c-.436-.61-.655-1.382-.655-2.318 0-.877.219-1.642.656-2.296.452-.668 1.07-1.18 1.853-1.537.784-.357 1.657-.535 2.622-.535 1.34 0 2.493.349 3.458 1.047.964.684 1.65 1.627 2.057 2.83l-2.193.357c-.301-.683-.73-1.203-1.288-1.56-.558-.371-1.213-.557-1.966-.557-.814 0-1.485.193-2.012.58-.527.37-.791.883-.791 1.537 0 .49.15.906.452 1.248a3.6 3.6 0 001.153.825c.467.208 1.085.445 1.853.713.98.327 1.793.661 2.441 1.003.663.327 1.22.795 1.673 1.404.452.609.678 1.374.678 2.295 0 .892-.241 1.672-.724 2.34-.467.669-1.115 1.189-1.943 1.56-.814.357-1.726.535-2.735.535zm14.758-2.14l-.203 1.917h-2.057c-1.221 0-2.147-.297-2.78-.891-.633-.595-.95-1.449-.95-2.563v-6.129h-2.011v-1.939h2.011l.611-3.342h1.604v3.342h3.572v1.94h-3.572v6.128c0 1.025.505 1.538 1.515 1.538h2.26zm7.387 2.14c-1.191 0-2.253-.253-3.187-.758a5.535 5.535 0 01-2.193-2.117c-.527-.906-.791-1.939-.791-3.098 0-1.158.264-2.191.791-3.097a5.534 5.534 0 012.193-2.117c.934-.52 1.996-.78 3.187-.78 1.19 0 2.252.26 3.186.78a5.528 5.528 0 012.193 2.117c.527.906.791 1.939.791 3.097 0 1.16-.264 2.192-.791 3.098a5.529 5.529 0 01-2.193 2.117c-.934.505-1.996.758-3.186.758zm0-2.006c1.145 0 2.071-.364 2.78-1.092.723-.728 1.085-1.686 1.085-2.875 0-1.188-.362-2.146-1.085-2.874-.709-.743-1.635-1.115-2.78-1.115-1.146 0-2.072.372-2.78 1.115-.709.728-1.063 1.686-1.063 2.874 0 1.174.354 2.132 1.063 2.875.708.728 1.634 1.092 2.78 1.092zm8.545 1.783V32.335h1.605l.475 1.65c.346-.58.776-.996 1.288-1.248.512-.268 1.123-.402 1.831-.402h.542l.181 2.095h-1.266c-.813 0-1.424.23-1.83.691-.407.46-.611 1.085-.611 1.872v6.864h-2.215zm18.585-5.839c0 .297-.007.528-.022.691h-9.652c.121 1.025.528 1.842 1.221 2.452.693.609 1.575.913 2.644.913.739 0 1.394-.14 1.967-.423.587-.297 1.032-.684 1.333-1.159l2.08.334a4.959 4.959 0 01-2.193 2.407c-.994.565-2.102.847-3.322.847-1.16 0-2.2-.253-3.119-.758a5.565 5.565 0 01-2.147-2.14c-.513-.905-.769-1.93-.769-3.075 0-1.158.256-2.191.769-3.097a5.45 5.45 0 012.124-2.117c.904-.52 1.936-.78 3.097-.78 1.145 0 2.169.26 3.073.78a5.413 5.413 0 012.148 2.117c.512.891.768 1.894.768 3.008zm-5.989-3.967c-.889 0-1.658.26-2.306.78-.633.52-1.055 1.219-1.266 2.095h7.143c-.196-.861-.618-1.552-1.266-2.072-.633-.535-1.401-.803-2.305-.803zM62.656 22.12c-.792 0-1.504-.184-2.136-.552a3.99 3.99 0 01-1.488-1.56c-.352-.664-.528-1.412-.528-2.244 0-.832.176-1.576.528-2.232.36-.664.852-1.18 1.476-1.548.632-.376 1.344-.564 2.136-.564.856 0 1.616.216 2.28.648.672.424 1.152 1 1.44 1.728l-1.224.192a2.413 2.413 0 00-.996-1.044 2.817 2.817 0 00-1.464-.384c-.56 0-1.06.136-1.5.408a2.826 2.826 0 00-1.02 1.14c-.24.48-.36 1.032-.36 1.656 0 .632.12 1.192.36 1.68.248.48.592.856 1.032 1.128.44.272.944.408 1.512.408.56 0 1.056-.128 1.488-.384a2.59 2.59 0 001.008-1.104l1.224.192a3.767 3.767 0 01-1.476 1.776c-.68.44-1.444.66-2.292.66zM72.694 22h-1.548l-2.292-2.568h-.372V22h-1.176v-6.204h1.176v2.508h.36l2.196-2.508h1.416l-2.664 3L72.694 22zm2.796-6.324c.769 0 1.373.252 1.813.756.448.496.672 1.192.672 2.088V22h-.84l-.276-.972c-.2.312-.468.572-.804.78-.336.208-.74.312-1.212.312-.416 0-.788-.084-1.116-.252a1.905 1.905 0 01-.768-.696 1.931 1.931 0 01-.276-1.02c0-.584.232-1.052.696-1.404.464-.352 1.136-.528 2.016-.528h1.404c-.032-.488-.168-.864-.408-1.128-.24-.272-.56-.408-.96-.408-.304 0-.572.072-.804.216a1.428 1.428 0 00-.528.564l-1.092-.18c.16-.496.468-.888.924-1.176a2.86 2.86 0 011.56-.432zm-.395 5.448c.504 0 .912-.164 1.224-.492.32-.336.48-.796.48-1.38v-.072H75.43c-1.04 0-1.56.312-1.56.936a.9.9 0 00.336.732c.224.184.52.276.888.276zm7.488-1.38c-.192.088-.42.156-.684.204a4.354 4.354 0 01-.78.072c-.744 0-1.316-.208-1.716-.624-.4-.416-.6-1.004-.6-1.764v-1.836h1.176v1.836c0 .888.428 1.332 1.284 1.332.52 0 .96-.092 1.32-.276v-2.892h1.176V22h-1.176v-2.256zm5.002-4.068c.768 0 1.372.252 1.812.756.448.496.672 1.192.672 2.088V22h-.84l-.276-.972c-.2.312-.468.572-.804.78-.336.208-.74.312-1.212.312-.416 0-.788-.084-1.116-.252a1.905 1.905 0 01-.768-.696 1.931 1.931 0 01-.276-1.02c0-.584.232-1.052.696-1.404.464-.352 1.136-.528 2.016-.528h1.404c-.032-.488-.168-.864-.408-1.128-.24-.272-.56-.408-.96-.408-.304 0-.572.072-.804.216a1.428 1.428 0 00-.528.564l-1.092-.18c.16-.496.468-.888.924-1.176a2.86 2.86 0 011.56-.432zm-.396 5.448c.504 0 .912-.164 1.224-.492.32-.336.48-.796.48-1.38v-.072h-1.368c-1.04 0-1.56.312-1.56.936a.9.9 0 00.336.732c.224.184.52.276.888.276zm5.928.876h-1.74v-6.204h1.14v4.884h.18l2.508-4.884h1.74V22h-1.14v-4.872h-.18L93.117 22zm1.056-7.008c-.52 0-.956-.136-1.308-.408-.344-.28-.548-.696-.612-1.248h.96c.04.256.14.452.3.588.168.128.388.192.66.192s.488-.064.648-.192c.168-.136.268-.332.3-.588h.972c-.072.552-.284.968-.636 1.248-.344.272-.772.408-1.284.408zm6.86 7.008h-1.176v-5.124H97.71v-1.08h5.472v1.08h-2.148V22zm8.696-3.144c0 .16-.004.284-.012.372h-5.124c.064.552.28.992.648 1.32.368.328.836.492 1.404.492.392 0 .74-.076 1.044-.228a1.75 1.75 0 00.708-.624l1.104.18c-.24.56-.628.992-1.164 1.296a3.471 3.471 0 01-1.764.456 3.343 3.343 0 01-1.656-.408 2.976 2.976 0 01-1.14-1.152 3.343 3.343 0 01-.408-1.656c0-.624.136-1.18.408-1.668a2.916 2.916 0 011.128-1.14c.48-.28 1.028-.42 1.644-.42.608 0 1.152.14 1.632.42.488.272.868.652 1.14 1.14.272.48.408 1.02.408 1.62zm-3.18-2.136c-.472 0-.88.14-1.224.42-.336.28-.56.656-.672 1.128h3.792a1.938 1.938 0 00-.672-1.116c-.336-.288-.744-.432-1.224-.432zm8.46 5.28h-1.74v-6.204h1.14v4.884h.18l2.508-4.884h1.74V22h-1.14v-4.872h-.18L115.009 22zm8.588-3.168c.328.096.6.272.816.528.216.248.324.556.324.924 0 .344-.1.656-.3.936-.2.272-.488.492-.864.66-.368.16-.796.24-1.284.24-.656 0-1.22-.152-1.692-.456a2.201 2.201 0 01-.936-1.248l1.092-.18c.264.576.772.864 1.524.864.416 0 .732-.076.948-.228a.767.767 0 00.336-.66.709.709 0 00-.312-.6c-.2-.152-.524-.228-.972-.228h-.816v-1.032h.816c.384 0 .676-.072.876-.216a.668.668 0 00.312-.576c0-.256-.112-.464-.336-.624-.216-.16-.484-.24-.804-.24-.312 0-.592.076-.84.228-.248.152-.436.36-.564.624l-1.092-.192c.184-.536.5-.948.948-1.236.456-.296.984-.444 1.584-.444.432 0 .82.076 1.164.228.352.152.624.364.816.636.2.272.3.576.3.912 0 .344-.096.636-.288.876-.192.24-.444.408-.756.504z" fill="#fff"/></svg>